<?xml version="1.0" encoding="UTF-8" standalone="no"?><!DOCTYPE svg PUBLIC "-//W3C//DTD SVG 1.1//EN" "http://www.w3.org/Graphics/SVG/1.1/DTD/svg11.dtd"><svg width="100%" height="100%" viewBox="0 0 142 29" version="1.1" xmlns="http://www.w3.org/2000/svg" xmlns:xlink="http://www.w3.org/1999/xlink" xml:space="preserve" xmlns:serif="http://www.serif.com/" style="fill-rule:evenodd;clip-rule:evenodd;stroke-linejoin:round;stroke-miterlimit:2;"><path d="M140.348,0l-100.195,0c-0.818,0 -1.48,0.663 -1.48,1.479l-0,25.141c-0,0.818 0.662,1.48 1.48,1.48l100.199,0c0.817,0 1.48,-0.662 1.48,-1.48l-0,-25.136c-0,-0.819 -0.664,-1.484 -1.484,-1.484" style="fill:#fcdb00;fill-rule:nonzero;"/><path d="M35.594,0l-34.206,0c-0.767,0 -1.388,0.622 -1.388,1.389l0,25.322c0,0.767 0.621,1.389 1.388,1.389l34.21,0c0.767,0 1.389,-0.622 1.389,-1.389l0,-25.318c0,-0.769 -0.623,-1.393 -1.393,-1.393" style="fill:#2e55a5;fill-rule:nonzero;"/><path d="M72.438,20.067c-0.011,-0 -0.022,-0.001 -0.033,-0.001c-0.013,-0 -0.023,0.001 -0.035,0.001c-2.256,-0 -3.812,-1.74 -3.812,-3.853c0,-2.111 1.556,-3.852 3.812,-3.852c0.012,-0 0.022,0.001 0.035,0.001c0.011,-0 0.022,-0.001 0.033,-0.001c2.257,-0 3.813,1.741 3.813,3.852c0,2.113 -1.556,3.853 -3.813,3.853m-0.033,-10.391c-3.694,-0 -6.758,2.66 -6.76,6.538c0.002,3.879 3.066,6.54 6.76,6.54c3.693,-0 6.756,-2.661 6.759,-6.54c-0.003,-3.878 -3.066,-6.538 -6.759,-6.538" style="fill:#2e55a5;fill-rule:nonzero;"/><path d="M62.784,17.763c-1.477,1.768 -3.937,2.686 -6.542,1.908c-1.931,-0.576 -3.445,-2.144 -3.978,-4.088c-1.124,-4.096 1.93,-7.802 5.848,-7.802c1.858,-0 3.518,0.832 4.634,2.143l2.116,-1.855c-1.657,-1.893 -4.112,-3.093 -6.852,-3.093c-4.991,-0 -9.038,3.98 -9.038,8.889c-0,4.909 4.047,8.888 9.038,8.888c2.759,-0 5.228,-1.216 6.886,-3.132l-2.112,-1.858Z" style="fill:#2e55a5;fill-rule:nonzero;"/><path d="M101.693,20.065l-0.068,-0.001c-2.26,0 -3.818,-1.742 -3.818,-3.858c0,-2.116 1.558,-3.858 3.818,-3.858c0.011,-0 0.023,0 0.034,0c0.012,0 0.022,-0 0.034,-0c2.259,-0 3.817,1.742 3.817,3.858c0,2.116 -1.558,3.858 -3.817,3.858m-0.034,-10.407c-3.699,0 -6.77,2.691 -6.77,6.549l0,11.879l2.918,0l0,-6.434c1.098,0.707 2.427,1.104 3.852,1.104c3.699,-0 6.766,-2.666 6.769,-6.549c-0.003,-3.885 -3.07,-6.549 -6.769,-6.549" style="fill:#2e55a5;fill-rule:nonzero;"/><path d="M87.061,20.065l-0.069,-0.001c-2.259,0 -3.817,-1.742 -3.817,-3.858c-0,-2.116 1.558,-3.858 3.817,-3.858c0.013,-0 0.024,0 0.035,0c0.012,0 0.022,-0 0.034,-0c2.26,-0 3.817,1.742 3.817,3.858c-0,2.116 -1.557,3.858 -3.817,3.858m-0.034,-10.407c-3.699,0 -6.769,2.691 -6.769,6.549l-0,11.879l2.917,0l-0,-6.434c1.099,0.707 2.428,1.104 3.852,1.104c3.699,-0 6.767,-2.666 6.77,-6.549c-0.003,-3.885 -3.071,-6.549 -6.77,-6.549" style="fill:#2e55a5;fill-rule:nonzero;"/><path d="M112.086,14.905c-0,-1.16 1.509,-2.747 3.525,-2.747c1.327,0 3.09,1.006 3.09,2.747l-6.615,0Zm3.344,-5.248c-3.428,0 -6.27,2.665 -6.272,6.549c0.002,3.884 2.844,6.549 6.272,6.549c2.063,0 4.237,-0.643 5.384,-2.259l-1.716,-1.717c-0.75,0.864 -1.892,1.402 -3.311,1.402c-2.249,0 -3.755,-1.323 -3.755,-3.205l9.629,0c0.026,-0.251 0.04,-0.508 0.04,-0.77c-0.003,-3.884 -2.44,-6.549 -6.271,-6.549" style="fill:#2e55a5;fill-rule:nonzero;"/><path d="M125.713,16.206l0,-11.033l-2.918,0l0,11.033c0.002,3.843 3.004,6.491 6.65,6.547l0,-2.691c-2.213,-0.042 -3.732,-1.766 -3.732,-3.856" style="fill:#2e55a5;fill-rule:nonzero;"/><path d="M12.132,18.957c-1.403,0.81 -2.854,-0.639 -2.048,-2.044c0.092,-0.159 0.228,-0.296 0.387,-0.389c1.408,-0.817 2.867,0.639 2.048,2.046c-0.092,0.159 -0.228,0.294 -0.387,0.387m-6.155,-2.75c-0.8,-1.402 0.639,-2.844 2.042,-2.045c0.16,0.091 0.297,0.226 0.39,0.385c0.827,1.409 -0.639,2.875 -2.048,2.05c-0.159,-0.094 -0.293,-0.23 -0.384,-0.39m4.496,-4.392c1.409,-0.818 2.868,0.646 2.043,2.051c-0.092,0.157 -0.227,0.292 -0.385,0.383c-1.405,0.811 -2.856,-0.646 -2.043,-2.048c0.091,-0.159 0.226,-0.294 0.385,-0.386m22.574,2.154l-18.624,0c0.186,-0.62 0.197,-1.31 -0.044,-2.034c-0.295,-0.885 -0.976,-1.613 -1.85,-1.936c-2.03,-0.752 -3.954,0.471 -4.387,2.269c-0.675,-0.206 -1.433,-0.198 -2.233,0.106c-0.725,0.274 -1.327,0.836 -1.644,1.543c-1.071,2.393 0.665,4.725 2.933,4.725c0.329,0 0.644,-0.05 0.944,-0.141c0.429,1.782 2.325,3 4.338,2.287c0.676,-0.24 1.256,-0.722 1.612,-1.345c0.519,-0.906 0.572,-1.84 0.331,-2.642l12.631,0l-0,3.908l1.512,0l-0,-1.954l1.46,0l-0,1.952l1.51,0l-0,-3.906l1.511,0l-0,-2.832Z" style="fill:#fcdb00;"/><path d="M131.453,21.351l0.148,-0c0.172,-0 0.311,-0.058 0.311,-0.196c0,-0.122 -0.09,-0.205 -0.287,-0.205c-0.082,-0 -0.138,0.008 -0.172,0.015l0,0.386Zm-0.007,0.761l-0.311,-0l0,-1.342c0.123,-0.024 0.295,-0.041 0.515,-0.041c0.253,-0 0.367,0.041 0.467,0.099c0.072,0.056 0.13,0.163 0.13,0.294c0,0.147 -0.115,0.261 -0.278,0.309l0,0.018c0.13,0.048 0.204,0.147 0.245,0.326c0.041,0.205 0.066,0.287 0.099,0.337l-0.337,-0c-0.04,-0.05 -0.064,-0.172 -0.105,-0.328c-0.024,-0.148 -0.107,-0.213 -0.278,-0.213l-0.147,-0l0,0.541Zm-0.826,-0.703c0,0.718 0.644,1.259 1.436,1.006c0.238,-0.076 0.437,-0.26 0.53,-0.492c0.327,-0.803 -0.168,-1.587 -0.928,-1.587c-0.596,-0 -1.038,0.484 -1.038,1.073m2.411,-0c0,0.759 -0.597,1.356 -1.373,1.356c-0.767,-0 -1.381,-0.597 -1.381,-1.356c0,-0.745 0.614,-1.342 1.381,-1.342c0.776,-0 1.373,0.597 1.373,1.342" style="fill:#2e55a5;fill-rule:nonzero;"/></svg>